<svg width="18" height="22" viewBox="0 0 18 22" fill="none" xmlns="http://www.w3.org/2000/svg">
<path d="M2.84615 1H11.1895L17 6.46684V19.4211C17 19.8398 16.8055 20.2414 16.4593 20.5375C16.1131 20.8336 15.6435 21 15.1538 21H2.84615C2.35652 21 1.88695 20.8336 1.54073 20.5375C1.1945 20.2414 1 19.8398 1 19.4211V2.57895C1 2.16018 1.1945 1.75857 1.54073 1.46246C1.88695 1.16635 2.35652 1 2.84615 1V1Z" stroke="white" stroke-linejoin="round"/>
<path d="M3.46094 15.7369H14.5379" stroke="white" stroke-linecap="round"/>
<path d="M3.46094 17.8422H10.8456" stroke="white" stroke-linecap="round"/>
<path d="M3.5 13L6.53748 6.78943L9.61441 13.1052M4.22979 11.5263H8.84518" stroke="white" stroke-linecap="round" stroke-linejoin="round"/>
<path d="M12.6924 9.94739V13.1053" stroke="white" stroke-linecap="round"/>
<path d="M10.8467 11.5264H14.539" stroke="white" stroke-linecap="round"/>
</svg>
