<svg width="25" height="21" viewBox="0 0 25 21" fill="none" xmlns="http://www.w3.org/2000/svg">
<path d="M11.6827 5.44734L4.00062 12.5653V20.2477C4.00062 20.4466 4.07086 20.6373 4.19589 20.778C4.32091 20.9186 4.49048 20.9977 4.66729 20.9977L9.33646 20.9841C9.51269 20.9831 9.6814 20.9036 9.80571 20.7631C9.93001 20.6225 9.99979 20.4323 9.99979 20.2341V15.7477C9.99979 15.5487 10.07 15.358 10.1951 15.2173C10.3201 15.0767 10.4896 14.9977 10.6665 14.9977H13.3331C13.5099 14.9977 13.6795 15.0767 13.8045 15.2173C13.9296 15.358 13.9998 15.5487 13.9998 15.7477V20.2308C13.9995 20.3295 14.0166 20.4273 14.0499 20.5185C14.0833 20.6098 14.1324 20.6927 14.1943 20.7626C14.2562 20.8325 14.3298 20.888 14.4109 20.9258C14.4919 20.9637 14.5787 20.9831 14.6665 20.9831L19.334 20.9977C19.5108 20.9977 19.6803 20.9186 19.8054 20.778C19.9304 20.6373 20.0006 20.4466 20.0006 20.2477V12.5602L12.3202 5.44734C12.2299 5.36546 12.1174 5.32082 12.0015 5.32082C11.8855 5.32082 11.773 5.36546 11.6827 5.44734V5.44734ZM23.8173 10.2853L20.334 7.05516V0.5625C20.334 0.413316 20.2813 0.270242 20.1875 0.164753C20.0937 0.0592633 19.9666 0 19.834 0H17.5006C17.368 0 17.2408 0.0592633 17.1471 0.164753C17.0533 0.270242 17.0006 0.413316 17.0006 0.5625V3.96609L13.2702 0.513281C12.9122 0.181865 12.463 0.000662506 11.9994 0.000662506C11.5358 0.000662506 11.0865 0.181865 10.7285 0.513281L0.181458 10.2853C0.130828 10.3324 0.0889391 10.3902 0.0581858 10.4555C0.0274324 10.5208 0.00841698 10.5923 0.0022259 10.6659C-0.00396519 10.7394 0.00278944 10.8137 0.0221038 10.8843C0.0414182 10.9549 0.0729139 11.0206 0.114791 11.0775L1.17729 12.5306C1.21905 12.5878 1.27042 12.6351 1.32846 12.6698C1.38649 12.7046 1.45005 12.7261 1.5155 12.7332C1.58094 12.7403 1.64699 12.7328 1.70986 12.7112C1.77273 12.6895 1.83118 12.6541 1.88187 12.607L11.6827 3.52547C11.773 3.44359 11.8855 3.39894 12.0015 3.39894C12.1174 3.39894 12.2299 3.44359 12.3202 3.52547L22.1215 12.607C22.1721 12.6541 22.2304 12.6896 22.2932 12.7113C22.356 12.733 22.422 12.7406 22.4874 12.7337C22.5527 12.7267 22.6163 12.7053 22.6743 12.6707C22.7324 12.6361 22.7838 12.589 22.8256 12.532L23.8881 11.0789C23.93 11.0216 23.9613 10.9557 23.9804 10.8847C23.9995 10.8138 24.0059 10.7393 23.9993 10.6655C23.9928 10.5918 23.9733 10.5202 23.9421 10.455C23.9108 10.3897 23.8684 10.3321 23.8173 10.2853V10.2853Z" fill="white"/>
</svg>
