<svg width="24" height="24" viewBox="0 0 24 24" fill="none" xmlns="http://www.w3.org/2000/svg">
<path d="M12.0002 16.8C14.6512 16.8 16.8002 14.6509 16.8002 12C16.8002 9.34898 14.6512 7.19995 12.0002 7.19995C9.34923 7.19995 7.2002 9.34898 7.2002 12C7.2002 14.6509 9.34923 16.8 12.0002 16.8Z" fill="white"/>
<path d="M13.2 2.4828V0H10.8V2.4828C8.68836 2.75242 6.72596 3.71541 5.22068 5.22068C3.71541 6.72596 2.75242 8.68836 2.4828 10.8H0V13.2H2.4828C2.75202 15.3118 3.71488 17.2744 5.22024 18.7798C6.72559 20.2851 8.6882 21.248 10.8 21.5172V24H13.2V21.5172C15.3119 21.2482 17.2746 20.2854 18.78 18.78C20.2854 17.2746 21.2482 15.3119 21.5172 13.2H24V10.8H21.5172C21.248 8.6882 20.2851 6.72559 18.7798 5.22024C17.2744 3.71488 15.3118 2.75202 13.2 2.4828V2.4828ZM12 19.2C8.0292 19.2 4.8 15.9708 4.8 12C4.8 8.0292 8.0292 4.8 12 4.8C15.9708 4.8 19.2 8.0292 19.2 12C19.2 15.9708 15.9708 19.2 12 19.2Z" fill="white"/>
</svg>
