<svg width="16" height="18" viewBox="0 0 16 18" fill="none" xmlns="http://www.w3.org/2000/svg">
<path d="M10.6667 0H1.77778C0.8 0 0.00888888 0.9 0.00888888 2L0 16C0 17.1 0.791111 18 1.76889 18H14.2222C15.2 18 16 17.1 16 16V6L10.6667 0ZM1.77778 16V2H9.77778V7H14.2222V16H1.77778ZM5.33333 5C5.33333 5.55 4.93333 6 4.44444 6C3.95556 6 3.55556 5.55 3.55556 5C3.55556 4.45 3.95556 4 4.44444 4C4.93333 4 5.33333 4.45 5.33333 5ZM5.33333 9C5.33333 9.55 4.93333 10 4.44444 10C3.95556 10 3.55556 9.55 3.55556 9C3.55556 8.45 3.95556 8 4.44444 8C4.93333 8 5.33333 8.45 5.33333 9ZM5.33333 13C5.33333 13.55 4.93333 14 4.44444 14C3.95556 14 3.55556 13.55 3.55556 13C3.55556 12.45 3.95556 12 4.44444 12C4.93333 12 5.33333 12.45 5.33333 13Z" fill="white"/>
</svg>
