<svg width="24" height="24" viewBox="0 0 24 24" fill="none" xmlns="http://www.w3.org/2000/svg">
<path d="M9.81819 15.2728L8.27564 16.8153L10.0058 18.5455H4.36364V7.43568C5.09151 7.17833 5.70497 6.67196 6.0956 6.00606C6.48623 5.34016 6.62888 4.5576 6.49833 3.79669C6.36778 3.03579 5.97244 2.34553 5.38218 1.84793C4.79192 1.35032 4.04476 1.07739 3.27273 1.07739C2.50071 1.07739 1.75354 1.35032 1.16329 1.84793C0.57303 2.34553 0.177689 3.03579 0.0471387 3.79669C-0.0834117 4.5576 0.0592337 5.34016 0.449863 6.00606C0.840493 6.67196 1.45395 7.17833 2.18182 7.43568V18.5455C2.18182 19.1241 2.41169 19.6791 2.82086 20.0883C3.23003 20.4974 3.78499 20.7273 4.36364 20.7273H10.0058L8.27564 22.4575L9.81819 24L14.1818 19.6364L9.81819 15.2728ZM3.27273 5.45459C3.05697 5.45459 2.84606 5.3906 2.66666 5.27073C2.48726 5.15086 2.34743 4.98049 2.26486 4.78115C2.1823 4.58181 2.16069 4.36247 2.20279 4.15085C2.24488 3.93923 2.34878 3.74485 2.50134 3.59229C2.65391 3.43972 2.84829 3.33582 3.05991 3.29373C3.27152 3.25164 3.49087 3.27324 3.69021 3.35581C3.88954 3.43838 4.05992 3.5782 4.17979 3.7576C4.29966 3.937 4.36364 4.14791 4.36364 4.36368C4.36364 4.653 4.24871 4.93048 4.04412 5.13506C3.83954 5.33965 3.56206 5.45459 3.27273 5.45459Z" fill="white"/>
<path d="M21.8184 16.5644V5.45454C21.8184 4.87589 21.5885 4.32094 21.1793 3.91177C20.7701 3.5026 20.2152 3.27273 19.6365 3.27273H13.9944L15.7245 1.54255L14.182 0L9.81836 4.36364L14.182 8.72727L15.7245 7.18473L13.9944 5.45454H19.6365V16.5644C18.9087 16.8217 18.2952 17.3281 17.9046 17.994C17.5139 18.6599 17.3713 19.4424 17.5019 20.2033C17.6324 20.9642 18.0277 21.6545 18.618 22.1521C19.2083 22.6497 19.9554 22.9226 20.7274 22.9226C21.4995 22.9226 22.2466 22.6497 22.8369 22.1521C23.4272 21.6545 23.8225 20.9642 23.953 20.2033C24.0836 19.4424 23.9409 18.6599 23.5503 17.994C23.1597 17.3281 22.5462 16.8217 21.8184 16.5644V16.5644ZM20.7274 20.7273C20.5117 20.7273 20.3008 20.6633 20.1214 20.5434C19.942 20.4235 19.8021 20.2532 19.7196 20.0538C19.637 19.8545 19.6154 19.6351 19.6575 19.4235C19.6996 19.2119 19.8035 19.0175 19.9561 18.865C20.1086 18.7124 20.303 18.6085 20.5146 18.5664C20.7262 18.5243 20.9456 18.5459 21.1449 18.6285C21.3443 18.7111 21.5146 18.8509 21.6345 19.0303C21.7544 19.2097 21.8184 19.4206 21.8184 19.6364C21.8184 19.9257 21.7034 20.2032 21.4988 20.4077C21.2943 20.6123 21.0168 20.7273 20.7274 20.7273Z" fill="white"/>
</svg>
